<svg width="198" height="154" viewBox="0 0 198 154" fill="none" xmlns="http://www.w3.org/2000/svg">
<g clip-path="url(#clip0)">
<path fill-rule="evenodd" clip-rule="evenodd" d="M41.0298 106.04C30.3598 106.04 22.3298 113.85 22.3298 124.3C22.3298 134.75 30.3598 142.56 41.0298 142.56C51.6998 142.56 59.7298 134.75 59.7298 124.3C59.7298 113.85 51.6998 106.04 41.0298 106.04ZM41.0298 114.84C46.4198 114.84 50.2698 118.69 50.2698 124.3C50.2698 129.91 46.4198 133.76 41.0298 133.76C35.6398 133.76 31.7898 129.91 31.7898 124.3C31.7898 118.69 35.6398 114.84 41.0298 114.84ZM82.2798 106.04C71.6098 106.04 63.5798 113.85 63.5798 124.3C63.5798 134.75 71.4998 142.56 82.2798 142.56C92.9498 142.56 100.98 134.75 100.98 124.3C100.98 113.85 92.9498 106.04 82.2798 106.04ZM82.2798 114.84C87.6698 114.84 91.5198 118.69 91.5198 124.3C91.5198 129.91 87.6698 133.76 82.2798 133.76C76.8898 133.76 73.0398 129.91 73.0398 124.3C73.0398 118.69 76.8898 114.84 82.2798 114.84Z" fill="#5BB50E"/>
<path fill-rule="evenodd" clip-rule="evenodd" d="M124.74 142.56C135.3 142.56 142.89 134.75 142.89 124.3C142.89 113.85 135.3 106.04 124.74 106.04C121.22 106.04 117.92 107.14 115.28 108.9V94.6001H105.93V141.57H112.86L113.96 138.71C116.82 141.13 120.56 142.56 124.74 142.56ZM133.43 124.3C133.43 129.69 129.36 133.76 123.97 133.76C118.58 133.76 114.51 129.69 114.51 124.3C114.51 118.91 118.58 114.84 123.97 114.84C129.47 114.84 133.43 118.91 133.43 124.3ZM2.97 145.42H0V154H4.4C11.99 154 17.38 148.61 17.38 141.02V107.03H8.03V140.36C8.03 143.66 6.27 145.42 2.97 145.42ZM147.84 94.6001H157.19V141.57H147.84V94.6001ZM197.78 126.94C197.89 126.06 198 125.07 198 124.19C198 114.29 190.74 106.04 180.07 106.04C169.84 106.04 162.14 113.85 162.14 124.3C162.14 134.64 169.84 142.56 180.07 142.56C188.1 142.56 194.7 137.72 197.23 130.24H187.44C186.01 132.66 183.37 134.2 180.07 134.2C175.56 134.2 172.37 131.67 171.6 126.94H197.78ZM188.65 120.56H171.93C173.03 116.49 175.89 114.07 180.07 114.07C184.25 114.07 187.33 116.38 188.65 120.56Z" fill="#0B71D9"/>
<path d="M197.671 67.8698C197.34 65.3398 196.9 62.8098 196.24 60.2798C195.58 57.7498 194.701 55.3298 193.711 53.0198C193.601 52.7448 193.463 52.4423 193.326 52.1398C193.188 51.8373 193.05 51.5348 192.94 51.2598C192.831 50.9848 192.693 50.6823 192.555 50.3798C192.418 50.0773 192.281 49.7748 192.171 49.4998L191.29 47.7398C190.96 47.1898 190.631 46.6398 190.411 46.0898C190.044 45.3565 189.579 44.6232 189.115 43.8899C188.883 43.5232 188.651 43.1565 188.43 42.7898C188.101 42.2399 187.77 41.6898 187.331 41.1398C187.001 40.5899 186.67 40.0398 186.23 39.4898C183.26 35.3098 179.851 31.4598 176.111 27.8298C172.37 24.3098 168.411 21.0098 164.23 18.1498L162.69 17.0498L161.04 16.0598C160.674 15.8398 160.307 15.6076 159.941 15.3754C159.207 14.911 158.474 14.4465 157.74 14.0798L156.09 13.1998C155.54 12.8698 154.99 12.5398 154.33 12.3198L150.7 10.5598C141.24 6.37982 131.23 3.62982 121.11 2.08982C120.45 1.97982 119.818 1.89732 119.185 1.81482C118.553 1.73232 117.92 1.64982 117.26 1.53982C115.94 1.31982 114.73 1.20982 113.41 1.09982C112.751 1.04483 112.118 0.989836 111.486 0.934844L111.485 0.934794C110.853 0.879802 110.22 0.82481 109.56 0.769819C108.9 0.714819 108.268 0.659819 107.635 0.604819C107.003 0.549819 106.37 0.494819 105.71 0.439819C100.87 -0.000181165 95.7005 -0.110181 90.6405 -0.000181183H88.7705L86.9005 0.109819C85.6752 0.109819 84.5448 0.20459 83.3332 0.306166L83.0505 0.329819C80.5205 0.439819 77.9905 0.659819 75.4605 0.879819C74.1955 0.989819 72.9305 1.12732 71.6655 1.26482C70.4005 1.40232 69.1355 1.53982 67.8705 1.64982C67.2105 1.75982 66.578 1.84232 65.9455 1.92482C65.313 2.00732 64.6805 2.08982 64.0205 2.19982L62.0405 2.52982L61.0505 2.63982L59.9505 2.85982L50.3805 4.61982C50.3805 4.61982 56.1005 11.5498 57.6405 13.3098C61.9305 17.9298 69.3005 24.3098 76.2305 28.9298C79.7505 31.2398 83.4905 33.2198 87.3405 34.8698C91.1905 36.6298 95.1505 38.0598 99.2205 39.1598C100.439 39.4892 101.665 39.784 102.896 40.0436C101.711 39.9171 100.523 39.8058 99.3301 39.7099C98.9451 39.7099 98.5601 39.6824 98.175 39.6549C97.79 39.6274 97.405 39.5999 97.02 39.5999C96.635 39.5999 96.2501 39.5724 95.8651 39.5449C95.48 39.5174 95.095 39.4899 94.71 39.4899H90.09C87.01 39.4899 83.93 39.5999 80.85 39.9299C77.77 40.2599 74.69 40.6999 71.61 41.2499L69.3 41.6899L66.99 42.2399C66.2201 42.3499 65.4501 42.5699 64.6801 42.7899C64.0201 42.8999 63.47 43.0099 62.81 43.2299C59.29 37.6199 53.13 33.9899 46.09 33.9899C35.2 33.9899 26.29 42.8999 26.29 53.8999C26.29 57.5299 27.28 60.8299 28.93 63.7999C25.08 67.7599 21.67 72.1599 18.7 76.7799C17.05 79.4199 15.51 82.1699 14.19 84.9199C13.53 86.2399 12.87 87.6699 12.32 89.0999C12.21 89.4849 12.0725 89.8424 11.935 90.1999C11.7975 90.5574 11.66 90.9149 11.55 91.2999C11.44 91.6849 11.33 92.0425 11.22 92.4C11.11 92.7575 11 93.1149 10.89 93.4999C13.97 88.2199 17.6 83.2699 21.45 78.7599C24.75 74.9099 28.38 71.1699 32.12 67.8699L34.1 66.2199L35.75 64.7899L36.52 64.1299C35.2 62.8099 34.1 61.1599 33.44 59.3999C32.89 57.8599 32.56 56.2099 32.56 54.4499C32.56 46.9699 38.72 40.8099 46.2 40.8099C50.16 40.8099 53.68 42.4599 56.21 45.2099C57.53 46.6399 58.63 48.3999 59.18 50.3799C60.005 50.0499 60.8575 49.6924 61.71 49.3349C62.5625 48.9774 63.415 48.6199 64.24 48.2899L65.23 47.9599C67.65 47.0799 70.18 46.1999 72.71 45.5399C73.095 45.4299 73.4525 45.3474 73.81 45.2649C74.1675 45.1824 74.525 45.0999 74.91 44.9899C75.0525 44.9492 75.1911 44.9085 75.3274 44.8685C75.9279 44.6923 76.4825 44.5296 77.11 44.4399C77.495 44.3849 77.8526 44.3024 78.2101 44.2199C78.5676 44.1374 78.925 44.0549 79.31 43.9999L81.51 43.6699C84.48 43.1199 87.45 42.7899 90.42 42.5699C91.19 42.5149 91.9325 42.4874 92.675 42.4599C93.4175 42.4324 94.16 42.4049 94.9301 42.3499H99.3301C111.32 42.4599 123.31 44.3299 135.08 47.2999C127.486 44.6962 119.749 42.6632 111.838 41.2945C115.91 41.5754 119.98 41.4591 123.97 40.9198C128.04 40.3698 132 39.3798 135.85 38.0598C139.7 36.7398 143.33 34.9798 146.85 32.9998C143.11 34.5398 139.26 35.7498 135.41 36.5198C131.56 37.2898 127.6 37.7298 123.75 37.7298C115.94 37.7298 108.24 36.0798 101.2 33.2198C94.1605 30.2498 87.5605 26.1798 81.7305 21.3398C78.7605 18.9198 76.0105 16.2798 73.3705 13.5298C73.2605 13.4198 73.1505 13.2823 73.0405 13.1448C72.9305 13.0073 72.8205 12.8698 72.7105 12.7598C73.4255 12.6498 74.113 12.5123 74.8005 12.3748C75.488 12.2373 76.1755 12.0998 76.8905 11.9898C81.6205 11.2198 86.4605 10.5598 91.3005 10.2298C95.9205 9.89982 100.76 9.67982 105.6 9.67982H109.23C110.44 9.67982 111.65 9.67982 112.86 9.78982C113.465 9.84482 114.07 9.87232 114.675 9.89982C115.28 9.92732 115.886 9.95482 116.49 10.0098L120.12 10.3398C129.69 11.3298 139.15 13.3098 148.17 16.7198L151.47 18.1498C151.745 18.2598 152.02 18.3973 152.295 18.5348C152.57 18.6723 152.845 18.8098 153.12 18.9198L154.77 19.6898C155.454 19.9632 156.095 20.3216 156.747 20.6858C157.143 20.9076 157.544 21.1316 157.96 21.3398L159.5 22.2198L161.04 23.2098C165.11 25.7398 169.07 28.5998 172.701 31.7898C176.331 34.9798 179.63 38.4998 182.6 42.2398C182.697 42.3681 182.793 42.5057 182.892 42.6472C183.132 42.9911 183.389 43.3581 183.701 43.6698C183.865 43.8898 184.058 44.1373 184.25 44.3848C184.443 44.6323 184.635 44.8798 184.8 45.0998C185.46 46.0897 186.121 47.0799 186.781 48.1798C188.1 50.2698 189.2 52.3598 190.19 54.5598C191.18 56.7598 192.061 58.9598 192.831 61.2698C193.491 63.5798 194.041 65.8898 194.48 68.3098C194.811 70.7298 195.031 73.0398 195.031 75.4598C195.031 77.8798 194.701 80.1898 194.04 82.3898C193.71 83.4898 193.27 84.5898 192.72 85.4698C192.171 86.3498 191.4 87.2298 190.52 87.8898C189.64 88.6598 188.651 89.2098 187.661 89.6498C187.551 89.7048 187.413 89.7598 187.275 89.8148C187.138 89.8698 187 89.9248 186.89 89.9798L186.12 90.1998C186.001 90.2594 185.85 90.2867 185.684 90.3166C185.543 90.342 185.392 90.3694 185.24 90.4198C185.185 90.4198 185.103 90.4473 185.02 90.4748C184.938 90.5023 184.855 90.5298 184.8 90.5298L184.361 90.6398C183.37 90.8598 182.38 90.8598 181.39 90.8598C178.97 90.8598 176.55 89.9798 174.79 88.2198C173.03 86.4598 171.71 84.2598 170.72 82.0598C170.28 80.6298 169.951 79.1998 169.73 77.6598C169.51 79.1998 169.4 80.7398 169.62 82.2798C169.84 84.3698 170.391 86.5698 171.6 88.3298C171.71 88.4398 171.6 88.6598 171.38 88.5498C171.215 88.4948 171.05 88.4123 170.885 88.3298C170.72 88.2473 170.555 88.1648 170.39 88.1098C165.99 85.9098 162.14 82.8298 158.73 79.3098C155.32 75.7898 152.35 71.7198 149.71 67.5398L150.59 69.1898L151.03 69.9598C151.085 70.0698 151.168 70.2073 151.251 70.3448C151.333 70.4823 151.415 70.6198 151.47 70.7298L152.46 72.3798C152.79 72.9297 153.121 73.4799 153.45 73.9198C154.88 76.0098 156.311 77.9898 157.96 79.9698C159.611 81.8398 161.37 83.7098 163.35 85.2498C165.33 86.8998 167.42 88.3298 169.62 89.5398C171.82 90.7498 174.24 91.7398 176.77 92.3998C179.3 93.0598 181.941 93.2798 184.581 92.9498L185.02 92.8398C185.075 92.8398 185.158 92.8124 185.24 92.7849C185.323 92.7574 185.406 92.7298 185.461 92.7298C185.626 92.6748 185.791 92.6473 185.956 92.6198C186.12 92.5923 186.285 92.5648 186.451 92.5098L187.44 92.2898L188.43 91.9598C189.641 91.5198 190.96 90.8598 191.951 89.9798C193.051 89.0998 194.041 88.1098 194.811 87.0098C195.581 85.7998 196.131 84.5898 196.57 83.2698C197.451 80.7398 197.781 78.0998 198.001 75.5698C198.111 73.0398 198.001 70.3998 197.671 67.8698Z" fill="#0B71D9"/>
<path d="M185.35 73.4798V74.4698C185.35 74.6898 185.323 74.9373 185.295 75.1848C185.268 75.4323 185.24 75.6798 185.24 75.8998C186.89 73.2598 187.77 70.2898 187.77 66.9898V66.7698C187.77 63.0298 185.02 59.8398 181.28 59.2898H181.17C180.73 59.1798 180.29 59.1798 179.74 59.1798H179.41C178.86 59.1798 178.31 59.2898 177.76 59.3998C177.32 60.1698 176.99 61.0498 176.77 62.0398C176.55 63.0298 176.44 64.1298 176.44 65.2298C176.44 69.5198 178.42 73.3698 181.5 75.8998C179.08 73.2598 177.65 69.8498 177.65 65.9998C177.65 64.5698 177.87 63.0298 178.31 61.7098H179.08C180.578 61.7098 181.908 62.3845 182.86 63.4207C183.066 63.7308 183.26 64.0469 183.26 64.4599C183.26 65.4499 182.49 66.2199 181.61 66.2199C181.06 66.2199 180.62 65.9999 180.29 65.5599C180.18 65.8899 180.07 66.3299 180.07 66.6599C180.07 68.5299 181.61 70.0699 183.48 70.0699C184.052 70.0699 184.592 69.926 185.068 69.6727C185.252 70.9095 185.35 72.1824 185.35 73.4798Z" fill="#0B71D9"/>
</g>
<defs>
<clipPath id="clip0">
<rect width="198" height="154" fill="white"/>
</clipPath>
</defs>
</svg>
